<mxfile host="app.diagrams.net" modified="2023-04-07T11:18:04.939Z" agent="Mozilla/5.0 (Macintosh; Intel Mac OS X 10_15_7) AppleWebKit/605.1.15 (KHTML, like Gecko) Version/16.4 Safari/605.1.15" version="21.1.5" etag="_BqtEwC4PP0UKfV3Gxo2" type="github">
  <diagram name="Page-1" id="6bG7kFtPwgKwTCeetraS">
    <mxGraphModel>
      <root>
        <mxCell id="0" />
        <mxCell id="1" parent="0" />
      </root>
    </mxGraphModel>
  </diagram>
</mxfile>
